<?xml version="1.0" encoding="utf-8"?>
<!-- Generator: Adobe Illustrator 18.0.0, SVG Export Plug-In . SVG Version: 6.00 Build 0)  -->
<!DOCTYPE svg PUBLIC "-//W3C//DTD SVG 1.1//EN" "http://www.w3.org/Graphics/SVG/1.1/DTD/svg11.dtd">
<svg version="1.1" id="圖層_1" xmlns="http://www.w3.org/2000/svg" xmlns:xlink="http://www.w3.org/1999/xlink" x="0px" y="0px"
	 viewBox="0 322 500 178" enable-background="new 0 322 500 178" xml:space="preserve">
<g id="圖層_1_1_" display="none">
</g>
<g id="圖層_8">
	<g>
		<g>
			<path fill="#4180B2" d="M96.3,328c5.9,0.8,12,1.4,17.6,3.4c29.3,9.7,48.1,29,57,58.7c0.6,2.3,0.6,2.5-2,2.5c-2.8,0-5.9,0-8.9,0
				c-1.7,0-2.5-0.6-3.1-2.3c-7.7-22.5-22.8-38.2-45.6-45.6c-41-13.7-84.9,13.1-91.7,55.8c-5.9,38.4,19.4,74,57.6,81.1
				c34.5,6.3,69-14.2,79.7-47.6c0.6-2,1.7-2.8,3.7-2.5c2.8,0.3,5.6,0,8.3,0c2.3,0,2.5,0.3,2,2.5c-3.4,12.2-9.1,23.4-17.3,32.8
				c-14.2,16.2-32.2,26.2-53.8,28.7c-23.9,2.8-45.6-3.4-64.1-19.1C19.2,462.7,9.5,445,6.4,424c-0.3-2.5-0.6-5.4-0.8-8
				c0-2.8,0-5.6,0-8.3c0.3-3.1,0.6-6.6,1.1-9.4c6.9-34.8,27-57.3,60.7-67.7c5.1-1.7,10.6-2.3,15.9-2.8C87.4,328,91.9,328,96.3,328z"
				/>
			<path fill="#4180B2" d="M166,428c-0.6-0.3-1.1-0.6-1.4-0.8c-6.9-4.5-13.7-9.4-20.5-13.9c-1.4-0.8-1.4-1.4,0-2.5
				c6.9-4.5,13.7-9.4,20.5-13.9c1.1-0.8,2-0.8,3.1,0c5.9,4.5,12.2,9.4,18.5,13.9c1.1,0.8,1.4,1.4,0.3,2.5
				c-6.2,4.5-12.5,9.4-18.8,14.2C166.8,427.7,166.6,427.7,166,428z M164.9,411.8c0-3.4,0-6.9,0-10.3c0-1.1-0.3-1.7-1.4-0.8
				c-4.8,3.4-9.7,6.9-14.2,10.6c-1.1,0.8-0.8,1.4,0,2c4.8,3.1,9.4,6.2,14.2,9.4c1.4,0.8,1.4,0.3,1.4-0.8
				C164.9,418.4,164.9,415.2,164.9,411.8z"/>
			<path fill="#4180B2" d="M130.4,381.7c0,5.9-4.8,11.1-11.1,10.8c-5.9,0-10.8-4.8-10.8-11.1s4.8-11.1,10.8-11.1
				C125.6,370.5,130.4,375.6,130.4,381.7z"/>
		</g>
	</g>
	<g>
		<path fill="#4180B2" d="M235,395.3v6.9c-2.5-2-5.4-3.1-8.3-3.1c-3.4,0-6.2,1.1-8.9,3.4c-2.8,2.5-4.2,5.9-4.2,10s1.4,7.2,4.2,9.1
			c3.1,2.5,5.9,3.7,8.9,3.7c1.4,0,2.8-0.3,4.2-0.8s2.5-1.4,4-2.3v7.2c-2.8,1.4-5.6,2-8.6,2c-4.5,0-8.9-1.7-12.8-5.4
			c-2-1.7-3.4-4-4.2-6.2c-1.1-2.3-1.4-4.8-1.4-7.7c0-3.1,0.6-5.9,2-8.6c1.1-2.5,3.1-4.8,5.4-6.6c3.7-2.5,7.4-4,11.1-4
			C228.9,392.7,231.8,393.6,235,395.3z"/>
		<path fill="#4180B2" d="M277.1,409l9.1,21.7h-7.7l-4-8.6c-1.7,2.8-4,4.8-6.9,6.6c-2.8,1.7-5.9,2.5-9.4,2.5c-5.4,0-10-2-13.7-5.6
			c-3.7-3.7-5.6-8.3-5.6-13.7c0-5.1,2-9.7,5.6-13.4c3.7-3.7,8.3-5.4,13.7-5.4c4.8,0,8.9,1.4,12.2,4.5
			C274.2,400.4,276.5,404.3,277.1,409z M258.6,399c-3.7,0-6.6,1.1-9.1,3.7c-2.5,2.5-4,5.6-4,9.1c0,3.7,1.1,6.9,3.7,9.4
			c2.5,2.5,5.6,3.7,9.4,3.7c3.7,0,6.9-1.4,9.1-4c2.5-2.5,3.7-5.6,3.7-9.4c0-3.4-1.1-6.6-3.7-8.9C265.1,400.1,262,399,258.6,399z"/>
		<path fill="#4180B2" d="M303.5,392.4c2.3,0,4.5,0.6,6.6,1.4c2,1.1,3.7,2.3,5.1,4c3.1-3.7,7.2-5.6,12.2-5.6c4,0,7.4,1.4,10.3,4
			c2.8,2.8,4.2,5.9,4.2,10v24.5H336V409c0-2.5-0.8-5.1-2.5-7.2c-1.7-2-3.7-2.8-6.2-2.8s-4.8,1.1-6.6,3.1c-1.7,2-2.5,4.2-2.5,6.9
			v21.7h-5.9v-22c0-2.5-0.8-5.1-2.5-7.2c-1.7-2-3.7-2.8-6.2-2.8s-4.8,0.8-6.9,2.5c-2,1.7-2.8,4-2.8,6.6v22.8H288v-25.1
			c0-4,1.4-7.2,4.5-9.7C295.9,393.6,299.6,392.4,303.5,392.4z"/>
		<path fill="#4180B2" d="M350.5,453.6v-41.3c0-5.9,2-10.8,5.6-14.5c3.7-3.4,8.3-4.8,13.7-4.8c5.1,0,9.7,2,13.4,5.6
			c3.7,3.7,5.4,8.3,5.4,13.7c0,5.1-1.7,9.7-5.4,13.4c-3.7,3.7-8.3,5.4-13.4,5.4c-3.4,0-6.2-0.6-8.6-1.4c-0.8-0.3-1.7-0.8-2.5-1.4
			c-0.6-0.3-0.8,0-1.1,0.6c-0.3,0.6-0.3,1.4-0.3,2.3c0,0.3,0,0.6,0,0.8c0,0,0,0,0,0.3v22h-6.9L350.5,453.6L350.5,453.6z M369.9,399
			c-3.4,0-6.6,1.1-9.1,3.7c-2.5,2.5-4,5.6-4,9.1c0,3.7,1.1,6.6,3.7,9.1c2.5,2.5,5.6,4,9.1,4c3.4,0,6.6-1.4,9.1-4
			c2.5-2.5,3.7-5.6,3.7-9.4c0-3.4-1.1-6.6-3.7-9.1C376.7,400.1,373.6,399,369.9,399z"/>
		<path fill="#4180B2" d="M430.5,409l9.1,21.7l-7.7-0.3l-4-8.6c-1.7,2.8-4,4.8-6.9,6.6c-2.8,1.7-5.9,2.5-9.4,2.5
			c-5.4,0-10-2-13.7-5.6c-3.7-3.7-5.6-8.3-5.6-13.7c0-5.1,2-9.7,5.6-13.4c3.7-3.7,8.3-5.4,13.7-5.4c4.8,0,8.9,1.4,12.2,4.5
			C427.7,400.4,429.7,404.3,430.5,409z M412.1,399c-3.7,0-6.6,1.1-9.1,3.7c-2.5,2.5-4,5.6-4,9.1c0,3.7,1.1,6.9,3.7,9.4
			c2.5,2.5,5.6,3.7,9.4,3.7s6.9-1.4,9.1-4c2.5-2.5,3.7-5.6,3.7-9.4c0-3.4-1.1-6.6-3.7-8.9C418.6,400.1,415.4,399,412.1,399z"/>
		<path fill="#4180B2" d="M456.8,400.4c-0.6-1.1-1.4-1.7-2.3-2.5c-0.8-0.6-2-0.8-2.8-0.8c-1.1,0.3-2.3,0.8-2.8,1.7
			c-0.6,1.1-0.8,2.3-0.8,3.4c0,1.7,2.8,3.7,8.9,5.4c5.6,2,8.9,5.4,8.9,10.6c0,3.7-1.1,6.6-3.7,8.9c-2.5,2.3-5.6,3.4-9.1,3.4
			c-4,0-7.2-1.4-9.7-4c-2.5-2.5-4-5.9-4-10.3l6.6,2.3c-0.3,2.3,0.3,4,1.7,4.8c1.4,1.1,3.1,1.4,5.1,1.4s3.7-0.6,5.1-1.7
			s2.3-2.8,2.3-4.8c0-2.3-3.1-4.2-9.1-6.2c-5.9-2-9.1-5.1-9.1-9.1c0-2.8,1.1-5.4,3.1-7.4s4.5-3.1,7.7-3.1c2.8,0,5.1,0.8,7.2,2.5
			c2,1.7,3.1,4,3.4,6.6L456.8,400.4z"/>
		<path fill="#4180B2" d="M486.1,400.4c-0.6-1.1-1.4-1.7-2.3-2.5c-0.8-0.6-2-0.8-2.8-0.8c-1.1,0.3-2.3,0.8-2.8,1.7
			c-0.6,1.1-0.8,2.3-0.8,3.4c0,1.7,2.8,3.7,8.9,5.4c5.6,2,8.9,5.4,8.9,10.6c0,3.7-1.1,6.6-3.7,8.9c-2.5,2.3-5.6,3.4-9.1,3.4
			c-4,0-7.2-1.4-9.7-4c-2.5-2.5-4-5.9-4-10.3l6.6,2.3c-0.3,2.3,0.3,4,1.7,4.8c1.4,1.1,3.1,1.4,5.1,1.4s3.7-0.6,5.1-1.7
			s2.3-2.8,2.3-4.8c0-2.3-3.1-4.2-9.1-6.2c-5.9-2-9.1-5.1-9.1-9.1c0-2.8,1.1-5.4,3.1-7.4s4.5-3.1,7.7-3.1c2.8,0,5.1,0.8,7.2,2.5
			c2,1.7,3.1,4,3.4,6.6L486.1,400.4z"/>
	</g>
</g>
</svg>
